<?xml version="1.0" standalone="no"?><svg xmlns="http://www.w3.org/2000/svg" viewBox="0 0 1440 320"><path fill="#273036" fill-opacity="1" d="M0,128L7.3,112C14.5,96,29,64,44,58.7C58.2,53,73,75,87,90.7C101.8,107,116,117,131,149.3C145.5,181,160,235,175,266.7C189.1,299,204,309,218,266.7C232.7,224,247,128,262,90.7C276.4,53,291,75,305,117.3C320,160,335,224,349,213.3C363.6,203,378,117,393,101.3C407.3,85,422,139,436,176C450.9,213,465,235,480,224C494.5,213,509,171,524,138.7C538.2,107,553,85,567,106.7C581.8,128,596,192,611,202.7C625.5,213,640,171,655,165.3C669.1,160,684,192,698,218.7C712.7,245,727,267,742,250.7C756.4,235,771,181,785,138.7C800,96,815,64,829,58.7C843.6,53,858,75,873,80C887.3,85,902,75,916,80C930.9,85,945,107,960,106.7C974.5,107,989,85,1004,74.7C1018.2,64,1033,64,1047,85.3C1061.8,107,1076,149,1091,192C1105.5,235,1120,277,1135,245.3C1149.1,213,1164,107,1178,80C1192.7,53,1207,107,1222,128C1236.4,149,1251,139,1265,128C1280,117,1295,107,1309,138.7C1323.6,171,1338,245,1353,277.3C1367.3,309,1382,299,1396,261.3C1410.9,224,1425,160,1433,128L1440,96L1440,320L1432.7,320C1425.5,320,1411,320,1396,320C1381.8,320,1367,320,1353,320C1338.2,320,1324,320,1309,320C1294.5,320,1280,320,1265,320C1250.9,320,1236,320,1222,320C1207.3,320,1193,320,1178,320C1163.6,320,1149,320,1135,320C1120,320,1105,320,1091,320C1076.4,320,1062,320,1047,320C1032.7,320,1018,320,1004,320C989.1,320,975,320,960,320C945.5,320,931,320,916,320C901.8,320,887,320,873,320C858.2,320,844,320,829,320C814.5,320,800,320,785,320C770.9,320,756,320,742,320C727.3,320,713,320,698,320C683.6,320,669,320,655,320C640,320,625,320,611,320C596.4,320,582,320,567,320C552.7,320,538,320,524,320C509.1,320,495,320,480,320C465.5,320,451,320,436,320C421.8,320,407,320,393,320C378.2,320,364,320,349,320C334.5,320,320,320,305,320C290.9,320,276,320,262,320C247.3,320,233,320,218,320C203.6,320,189,320,175,320C160,320,145,320,131,320C116.4,320,102,320,87,320C72.7,320,58,320,44,320C29.1,320,15,320,7,320L0,320Z"></path></svg>