<svg width="72" height="10" viewBox="0 0 72 10" fill="none" xmlns="http://www.w3.org/2000/svg">
<path d="M6.84 5.772C6.84 6.46 6.796 7.004 6.708 7.404C6.62 7.804 6.436 8.144 6.156 8.424C5.932 8.648 5.652 8.82 5.316 8.94C4.988 9.052 4.62 9.108 4.212 9.108C3.468 9.108 2.88 9 2.448 8.784C2.024 8.56 1.72 8.232 1.536 7.8C1.36 7.368 1.272 6.844 1.272 6.228V2.412C1.272 2.124 1.252 1.912 1.212 1.776C1.18 1.632 1.112 1.536 1.008 1.488C0.912 1.432 0.764 1.392 0.564 1.368C0.54 1.28 0.524 1.192 0.516 1.104C0.508 1.016 0.504 0.932 0.504 0.852C0.664 0.86 0.872 0.868 1.128 0.875999C1.392 0.883999 1.648 0.887999 1.896 0.887999C2.016 0.887999 2.14 0.887999 2.268 0.887999C2.396 0.887999 2.52 0.887999 2.64 0.887999C2.76 0.879999 2.876 0.875999 2.988 0.875999C3.1 0.868 3.2 0.86 3.288 0.852C3.288 0.932 3.284 1.016 3.276 1.104C3.268 1.192 3.252 1.28 3.228 1.368C2.996 1.384 2.82 1.42 2.7 1.476C2.58 1.524 2.5 1.62 2.46 1.764C2.42 1.9 2.4 2.116 2.4 2.412V6.06C2.4 6.508 2.46 6.916 2.58 7.284C2.7 7.652 2.908 7.944 3.204 8.16C3.5 8.368 3.912 8.472 4.44 8.472C4.64 8.472 4.86 8.44 5.1 8.376C5.34 8.304 5.544 8.184 5.712 8.016C5.84 7.888 5.94 7.74 6.012 7.572C6.084 7.404 6.136 7.184 6.168 6.912C6.208 6.64 6.228 6.292 6.228 5.868V2.892C6.228 2.508 6.208 2.212 6.168 2.004C6.128 1.788 6.048 1.632 5.928 1.536C5.816 1.44 5.64 1.384 5.4 1.368C5.376 1.248 5.36 1.152 5.352 1.08C5.344 1.008 5.34 0.932 5.34 0.852C5.436 0.86 5.548 0.868 5.676 0.875999C5.804 0.875999 5.936 0.879999 6.072 0.887999C6.216 0.887999 6.348 0.887999 6.468 0.887999C6.652 0.887999 6.848 0.883999 7.056 0.875999C7.272 0.868 7.456 0.86 7.608 0.852C7.608 0.908 7.604 0.975999 7.596 1.056C7.588 1.128 7.572 1.232 7.548 1.368C7.364 1.384 7.22 1.44 7.116 1.536C7.012 1.624 6.94 1.776 6.9 1.992C6.86 2.2 6.84 2.5 6.84 2.892V5.772ZM10.5097 7.236C10.5097 7.58 10.5457 7.844 10.6177 8.028C10.6897 8.204 10.8057 8.328 10.9657 8.4C11.1257 8.464 11.3297 8.504 11.5777 8.52C11.6017 8.584 11.6177 8.66 11.6257 8.748C11.6337 8.828 11.6377 8.924 11.6377 9.036C11.5177 9.028 11.3737 9.02 11.2057 9.012C11.0457 9.012 10.8737 9.008 10.6897 9C10.5057 9 10.3177 9 10.1257 9C9.84566 9 9.54966 9 9.23766 9C8.93366 9.008 8.70166 9.02 8.54166 9.036C8.54166 8.924 8.54566 8.828 8.55366 8.748C8.56166 8.66 8.57766 8.584 8.60166 8.52C8.81766 8.504 8.98566 8.468 9.10566 8.412C9.22566 8.348 9.30966 8.244 9.35766 8.1C9.40566 7.948 9.42966 7.74 9.42966 7.476V6.276H10.5097V7.236ZM10.5097 5.484V6.432H9.42966V5.1L10.5097 3.924C10.5097 4.196 10.4857 4.444 10.4377 4.668C10.3897 4.884 10.3457 5.1 10.3057 5.316L10.5097 5.484ZM10.2457 5.388C10.3337 5.164 10.4017 4.98 10.4497 4.836C10.4977 4.692 10.5497 4.572 10.6057 4.476C10.7817 4.196 10.9897 3.964 11.2297 3.78C11.4697 3.596 11.7457 3.504 12.0577 3.504C12.3617 3.504 12.6377 3.6 12.8857 3.792C12.8697 3.92 12.8537 4.068 12.8377 4.236C12.8217 4.404 12.8097 4.572 12.8017 4.74C12.8017 4.908 12.8017 5.064 12.8017 5.208C12.7297 5.232 12.6297 5.256 12.5017 5.28C12.3817 5.304 12.2537 5.316 12.1177 5.316C12.1017 4.932 12.0377 4.68 11.9257 4.56C11.8217 4.44 11.6897 4.38 11.5297 4.38C11.3937 4.38 11.2457 4.46 11.0857 4.62C10.9257 4.772 10.7897 4.976 10.6777 5.232C10.5657 5.488 10.5097 5.772 10.5097 6.084L10.2457 5.388ZM9.42966 6.432V5.1C9.42966 4.908 9.40966 4.752 9.36966 4.632C9.32966 4.512 9.24566 4.42 9.11766 4.356C8.98966 4.292 8.79366 4.256 8.52966 4.248C8.52966 4.16 8.53766 4.08 8.55366 4.008C8.56966 3.936 8.59766 3.868 8.63766 3.804C8.88566 3.788 9.16966 3.74 9.48966 3.66C9.80966 3.58 10.0617 3.492 10.2457 3.396C10.3177 3.42 10.3777 3.472 10.4257 3.552C10.4817 3.624 10.5097 3.748 10.5097 3.924L9.42966 6.432ZM15.057 7.968C15.217 8.136 15.389 8.276 15.573 8.388C15.765 8.5 16.001 8.556 16.281 8.556C16.449 8.556 16.629 8.524 16.821 8.46C17.021 8.388 17.213 8.268 17.397 8.1C17.581 7.932 17.729 7.696 17.841 7.392C17.961 7.088 18.021 6.696 18.021 6.216C18.021 5.704 17.945 5.3 17.793 5.004C17.641 4.7 17.461 4.484 17.253 4.356C17.045 4.22 16.853 4.152 16.677 4.152C16.445 4.152 16.217 4.228 15.993 4.38C15.769 4.524 15.585 4.764 15.441 5.1C15.297 5.436 15.225 5.884 15.225 6.444V8.352L15.057 7.968ZM16.221 9.108C15.861 9.108 15.533 9.072 15.237 9C14.941 8.928 14.681 8.832 14.457 8.712C14.233 8.584 14.041 8.444 13.881 8.292C13.969 8.18 14.033 8.016 14.073 7.8C14.121 7.584 14.145 7.24 14.145 6.768V2.1C14.145 1.908 14.125 1.752 14.085 1.632C14.053 1.504 13.973 1.408 13.845 1.344C13.717 1.28 13.517 1.248 13.245 1.248C13.245 1.16 13.253 1.08 13.269 1.008C13.285 0.936 13.313 0.868 13.353 0.804C13.473 0.804 13.641 0.784 13.857 0.744C14.081 0.704 14.297 0.652 14.505 0.588C14.713 0.523999 14.865 0.46 14.961 0.396C15.033 0.42 15.093 0.467999 15.141 0.539999C15.197 0.612 15.225 0.724 15.225 0.875999V4.008C15.225 4.152 15.217 4.276 15.201 4.38C15.185 4.476 15.169 4.568 15.153 4.656L15.105 5.724L14.877 5.172C14.981 4.916 15.069 4.72 15.141 4.584C15.221 4.448 15.281 4.348 15.321 4.284C15.393 4.164 15.505 4.036 15.657 3.9C15.817 3.756 16.009 3.636 16.233 3.54C16.457 3.444 16.701 3.396 16.965 3.396C17.437 3.396 17.837 3.492 18.165 3.684C18.501 3.868 18.757 4.156 18.933 4.548C19.117 4.94 19.209 5.444 19.209 6.06C19.209 6.62 19.085 7.132 18.837 7.596C18.589 8.052 18.241 8.42 17.793 8.7C17.345 8.972 16.821 9.108 16.221 9.108ZM23.8035 9.108C23.7155 9.068 23.6435 8.996 23.5875 8.892C23.5395 8.788 23.5155 8.624 23.5155 8.4C23.5155 8.328 23.5195 8.244 23.5275 8.148C23.5355 8.044 23.5515 7.952 23.5755 7.872H23.5995C23.5755 8 23.5195 8.14 23.4315 8.292C23.3515 8.436 23.2435 8.564 23.1075 8.676C22.9715 8.796 22.7995 8.896 22.5915 8.976C22.3835 9.048 22.1315 9.084 21.8355 9.084C21.3315 9.084 20.9475 8.972 20.6835 8.748C20.4195 8.516 20.2875 8.204 20.2875 7.812C20.2875 7.5 20.3595 7.236 20.5035 7.02C20.6555 6.796 20.8475 6.612 21.0795 6.468C21.3195 6.316 21.5755 6.196 21.8475 6.108C22.1275 6.02 22.3995 5.952 22.6635 5.904C22.9275 5.856 23.1595 5.816 23.3595 5.784C23.3595 5.456 23.3515 5.2 23.3355 5.016C23.3275 4.832 23.3035 4.688 23.2635 4.584C23.2315 4.472 23.1795 4.376 23.1075 4.296C23.0115 4.176 22.8995 4.088 22.7715 4.032C22.6515 3.968 22.5155 3.936 22.3635 3.936C22.0995 3.936 21.8915 4.02 21.7395 4.188C21.5875 4.348 21.4795 4.536 21.4155 4.752C21.3515 4.968 21.3155 5.16 21.3075 5.328C21.2195 5.328 21.1075 5.324 20.9715 5.316C20.8435 5.3 20.7475 5.276 20.6835 5.244C20.6995 5.044 20.7035 4.82 20.6955 4.572C20.6875 4.324 20.6635 4.112 20.6235 3.936C20.9515 3.768 21.2955 3.636 21.6555 3.54C22.0235 3.444 22.3595 3.396 22.6635 3.396C22.9595 3.396 23.2115 3.44 23.4195 3.528C23.6355 3.608 23.8075 3.716 23.9355 3.852C24.1435 4.052 24.2795 4.316 24.3435 4.644C24.4075 4.964 24.4395 5.392 24.4395 5.928V7.248C24.4395 7.472 24.4555 7.652 24.4875 7.788C24.5275 7.916 24.5995 8.012 24.7035 8.076C24.8075 8.132 24.9675 8.168 25.1835 8.184C25.1835 8.264 25.1795 8.356 25.1715 8.46C25.1635 8.556 25.1435 8.648 25.1115 8.736C24.9115 8.744 24.6875 8.784 24.4395 8.856C24.1995 8.92 23.9875 9.004 23.8035 9.108ZM22.1715 8.424C22.3475 8.424 22.5275 8.368 22.7115 8.256C22.8955 8.136 23.0475 7.952 23.1675 7.704C23.2955 7.456 23.3595 7.132 23.3595 6.732V6.276C23.1595 6.3 22.9475 6.336 22.7235 6.384C22.4995 6.424 22.2915 6.488 22.0995 6.576C21.9075 6.664 21.7515 6.788 21.6315 6.948C21.5115 7.1 21.4515 7.308 21.4515 7.572C21.4515 7.868 21.5235 8.084 21.6675 8.22C21.8115 8.356 21.9795 8.424 22.1715 8.424ZM26.9961 6.432V5.1C26.9961 4.908 26.9761 4.752 26.9361 4.632C26.8961 4.512 26.8121 4.42 26.6841 4.356C26.5561 4.292 26.3601 4.256 26.0961 4.248C26.0961 4.16 26.1041 4.08 26.1201 4.008C26.1361 3.936 26.1641 3.868 26.2041 3.804C26.4521 3.788 26.7361 3.74 27.0561 3.66C27.3761 3.58 27.6281 3.492 27.8121 3.396C27.8841 3.42 27.9441 3.472 27.9921 3.552C28.0481 3.624 28.0761 3.748 28.0761 3.924L26.9961 6.432ZM31.6281 7.476C31.6281 7.892 31.6841 8.172 31.7961 8.316C31.9161 8.452 32.0961 8.52 32.3361 8.52C32.3601 8.592 32.3761 8.668 32.3841 8.748C32.3921 8.828 32.3961 8.924 32.3961 9.036C32.2201 9.02 32.0201 9.008 31.7961 9C31.5721 9 31.3361 9 31.0881 9C30.9281 9 30.7601 9 30.5841 9C30.4081 9.008 30.2401 9.012 30.0801 9.012C29.9281 9.02 29.7881 9.028 29.6601 9.036C29.6601 8.924 29.6641 8.828 29.6721 8.748C29.6801 8.66 29.6961 8.584 29.7201 8.52C30.0081 8.52 30.2161 8.448 30.3441 8.304C30.4801 8.152 30.5481 7.876 30.5481 7.476V5.652C30.5481 5.084 30.4441 4.7 30.2361 4.5C30.0281 4.292 29.7601 4.188 29.4321 4.188C29.2241 4.188 29.0161 4.256 28.8081 4.392C28.6001 4.52 28.4241 4.732 28.2801 5.028C28.1441 5.316 28.0761 5.704 28.0761 6.192V7.476C28.0761 7.876 28.1361 8.152 28.2561 8.304C28.3761 8.448 28.5921 8.52 28.9041 8.52C28.9281 8.592 28.9441 8.668 28.9521 8.748C28.9601 8.828 28.9641 8.924 28.9641 9.036C28.8521 9.028 28.7161 9.02 28.5561 9.012C28.3961 9.012 28.2281 9.008 28.0521 9C27.8761 9 27.7041 9 27.5361 9C27.3761 9 27.2081 9 27.0321 9C26.8561 9.008 26.6881 9.012 26.5281 9.012C26.3681 9.02 26.2281 9.028 26.1081 9.036C26.1081 8.924 26.1121 8.828 26.1201 8.748C26.1281 8.66 26.1441 8.584 26.1681 8.52C26.4801 8.52 26.6961 8.448 26.8161 8.304C26.9361 8.152 26.9961 7.876 26.9961 7.476V5.1L28.0761 3.924C28.0761 4.02 28.0721 4.128 28.0641 4.248C28.0561 4.368 28.0321 4.496 27.9921 4.632C28.0161 4.592 28.0401 4.548 28.0641 4.5C28.0881 4.444 28.1241 4.384 28.1721 4.32C28.3081 4.136 28.5241 3.948 28.8201 3.756C29.1241 3.556 29.4881 3.456 29.9121 3.456C30.2161 3.456 30.4961 3.52 30.7521 3.648C31.0161 3.768 31.2281 3.972 31.3881 4.26C31.5481 4.54 31.6281 4.924 31.6281 5.412V7.476ZM37.1202 0.816L39.9762 7.368C40.1122 7.664 40.2242 7.892 40.3122 8.052C40.4002 8.212 40.4882 8.324 40.5762 8.388C40.6722 8.452 40.7802 8.496 40.9002 8.52C40.9322 8.624 40.9522 8.712 40.9602 8.784C40.9682 8.856 40.9722 8.94 40.9722 9.036C40.8922 9.028 40.7682 9.02 40.6002 9.012C40.4322 9.012 40.2562 9.008 40.0722 9C39.8882 9 39.7322 9 39.6042 9C39.5082 9 39.3962 9 39.2682 9C39.1402 9.008 39.0082 9.012 38.8722 9.012C38.7362 9.02 38.6122 9.024 38.5002 9.024C38.3962 9.032 38.3122 9.036 38.2482 9.036C38.2482 8.94 38.2522 8.848 38.2602 8.76C38.2762 8.672 38.3002 8.592 38.3322 8.52C38.6602 8.48 38.8522 8.408 38.9082 8.304C38.9722 8.192 38.9242 7.952 38.7642 7.584L37.0962 3.684C36.9922 3.436 36.9002 3.216 36.8202 3.024C36.7402 2.832 36.6442 2.588 36.5322 2.292H36.5922C36.4962 2.596 36.4082 2.856 36.3282 3.072C36.2562 3.28 36.1842 3.48 36.1122 3.672L34.7442 7.236C34.5682 7.708 34.5122 8.036 34.5762 8.22C34.6482 8.396 34.8482 8.496 35.1762 8.52C35.2082 8.592 35.2282 8.672 35.2362 8.76C35.2522 8.848 35.2602 8.94 35.2602 9.036C35.1722 9.028 35.0642 9.02 34.9362 9.012C34.8082 9.012 34.6722 9.008 34.5282 9C34.3922 9 34.2562 9 34.1202 9C33.9202 9 33.7322 9.004 33.5562 9.012C33.3802 9.02 33.2362 9.028 33.1242 9.036C33.1242 8.956 33.1282 8.872 33.1362 8.784C33.1522 8.688 33.1762 8.604 33.2082 8.532C33.3522 8.5 33.4722 8.444 33.5682 8.364C33.6642 8.284 33.7562 8.156 33.8442 7.98C33.9402 7.796 34.0482 7.548 34.1682 7.236L36.6522 0.864C36.7322 0.848 36.8042 0.836 36.8682 0.827999C36.9402 0.819999 37.0242 0.816 37.1202 0.816ZM38.2122 5.82L38.3202 6.36C37.7842 6.36 37.2082 6.364 36.5922 6.372C35.9842 6.38 35.4322 6.392 34.9362 6.408L35.1282 5.82H38.2122ZM43.4746 9.108C43.4106 8.948 43.3106 8.716 43.1746 8.412C43.0466 8.1 42.8986 7.756 42.7306 7.38C42.5706 7.004 42.4066 6.636 42.2386 6.276C42.0786 5.908 41.9346 5.588 41.8066 5.316C41.6866 5.036 41.6026 4.844 41.5546 4.74C41.4506 4.524 41.3626 4.368 41.2906 4.272C41.2186 4.168 41.1466 4.096 41.0746 4.056C41.0106 4.016 40.9226 3.992 40.8106 3.984C40.7786 3.88 40.7586 3.796 40.7506 3.732C40.7426 3.668 40.7386 3.58 40.7386 3.468C40.9066 3.476 41.0946 3.484 41.3026 3.492C41.5186 3.5 41.7506 3.504 41.9986 3.504C42.1666 3.504 42.3386 3.504 42.5146 3.504C42.6986 3.496 42.8706 3.492 43.0306 3.492C43.1986 3.484 43.3466 3.476 43.4746 3.468C43.4746 3.556 43.4666 3.644 43.4506 3.732C43.4346 3.812 43.4146 3.888 43.3906 3.96C42.9906 3.992 42.7546 4.056 42.6826 4.152C42.6106 4.248 42.6506 4.46 42.8026 4.788C42.8586 4.908 42.9386 5.092 43.0426 5.34C43.1466 5.58 43.2626 5.856 43.3906 6.168C43.5186 6.48 43.6466 6.796 43.7746 7.116C43.9026 7.428 44.0146 7.712 44.1106 7.968H43.9786C44.1866 7.448 44.3746 6.98 44.5426 6.564C44.7106 6.148 44.8666 5.76 45.0106 5.4C45.2186 4.88 45.2786 4.52 45.1906 4.32C45.1106 4.112 44.9186 3.996 44.6146 3.972C44.5746 3.892 44.5426 3.808 44.5186 3.72C44.4946 3.632 44.4826 3.548 44.4826 3.468C44.6426 3.476 44.8226 3.484 45.0226 3.492C45.2226 3.5 45.4146 3.504 45.5986 3.504C45.7826 3.504 45.9786 3.5 46.1866 3.492C46.3946 3.484 46.5706 3.476 46.7146 3.468C46.7146 3.572 46.7066 3.668 46.6906 3.756C46.6746 3.836 46.6466 3.912 46.6066 3.984C46.4786 4.008 46.3666 4.064 46.2706 4.152C46.1746 4.24 46.0786 4.372 45.9826 4.548C45.8946 4.724 45.7826 4.972 45.6466 5.292L44.0266 9C43.9546 9.032 43.8666 9.056 43.7626 9.072C43.6666 9.096 43.5706 9.108 43.4746 9.108ZM49.8053 9.108C49.2373 9.108 48.7653 8.98 48.3893 8.724C48.0133 8.468 47.7293 8.124 47.5373 7.692C47.3533 7.252 47.2613 6.772 47.2613 6.252C47.2613 5.74 47.3613 5.268 47.5613 4.836C47.7613 4.404 48.0453 4.056 48.4133 3.792C48.7893 3.528 49.2333 3.396 49.7453 3.396C50.2653 3.396 50.6813 3.508 50.9933 3.732C51.3133 3.956 51.5493 4.256 51.7013 4.632C51.8613 5.008 51.9573 5.424 51.9893 5.88C51.9573 6.04 51.8973 6.176 51.8093 6.288C51.6733 6.288 51.4693 6.288 51.1973 6.288C50.9253 6.288 50.6173 6.292 50.2733 6.3C49.9293 6.3 49.5773 6.308 49.2173 6.324C48.8573 6.332 48.5173 6.344 48.1973 6.36V5.748H50.7413C50.7413 5.22 50.6453 4.792 50.4533 4.464C50.2613 4.136 49.9893 3.972 49.6373 3.972C49.4453 3.972 49.2573 4.032 49.0733 4.152C48.8893 4.264 48.7373 4.468 48.6173 4.764C48.4973 5.052 48.4373 5.464 48.4373 6C48.4373 6.392 48.4853 6.776 48.5813 7.152C48.6853 7.52 48.8613 7.828 49.1093 8.076C49.3653 8.316 49.7253 8.436 50.1893 8.436C50.4533 8.436 50.7133 8.376 50.9693 8.256C51.2253 8.136 51.4533 7.964 51.6533 7.74C51.7173 7.772 51.7773 7.828 51.8333 7.908C51.8973 7.98 51.9333 8.048 51.9413 8.112C51.6693 8.472 51.3533 8.728 50.9933 8.88C50.6413 9.032 50.2453 9.108 49.8053 9.108ZM53.7968 6.432V5.1C53.7968 4.908 53.7768 4.752 53.7368 4.632C53.6968 4.512 53.6128 4.42 53.4848 4.356C53.3568 4.292 53.1608 4.256 52.8968 4.248C52.8968 4.16 52.9048 4.08 52.9208 4.008C52.9368 3.936 52.9648 3.868 53.0048 3.804C53.2528 3.788 53.5368 3.74 53.8568 3.66C54.1768 3.58 54.4288 3.492 54.6128 3.396C54.6848 3.42 54.7448 3.472 54.7928 3.552C54.8488 3.624 54.8768 3.748 54.8768 3.924L53.7968 6.432ZM58.4288 7.476C58.4288 7.892 58.4848 8.172 58.5968 8.316C58.7168 8.452 58.8968 8.52 59.1368 8.52C59.1608 8.592 59.1768 8.668 59.1848 8.748C59.1928 8.828 59.1968 8.924 59.1968 9.036C59.0208 9.02 58.8208 9.008 58.5968 9C58.3728 9 58.1368 9 57.8888 9C57.7288 9 57.5608 9 57.3848 9C57.2088 9.008 57.0408 9.012 56.8808 9.012C56.7288 9.02 56.5888 9.028 56.4608 9.036C56.4608 8.924 56.4648 8.828 56.4728 8.748C56.4808 8.66 56.4968 8.584 56.5208 8.52C56.8088 8.52 57.0168 8.448 57.1448 8.304C57.2808 8.152 57.3488 7.876 57.3488 7.476V5.652C57.3488 5.084 57.2448 4.7 57.0368 4.5C56.8288 4.292 56.5608 4.188 56.2328 4.188C56.0248 4.188 55.8168 4.256 55.6088 4.392C55.4008 4.52 55.2248 4.732 55.0808 5.028C54.9448 5.316 54.8768 5.704 54.8768 6.192V7.476C54.8768 7.876 54.9368 8.152 55.0568 8.304C55.1768 8.448 55.3928 8.52 55.7048 8.52C55.7288 8.592 55.7448 8.668 55.7528 8.748C55.7608 8.828 55.7648 8.924 55.7648 9.036C55.6528 9.028 55.5168 9.02 55.3568 9.012C55.1968 9.012 55.0288 9.008 54.8528 9C54.6768 9 54.5048 9 54.3368 9C54.1768 9 54.0088 9 53.8328 9C53.6568 9.008 53.4888 9.012 53.3288 9.012C53.1688 9.02 53.0288 9.028 52.9088 9.036C52.9088 8.924 52.9128 8.828 52.9208 8.748C52.9288 8.66 52.9448 8.584 52.9688 8.52C53.2808 8.52 53.4968 8.448 53.6168 8.304C53.7368 8.152 53.7968 7.876 53.7968 7.476V5.1L54.8768 3.924C54.8768 4.02 54.8728 4.128 54.8648 4.248C54.8568 4.368 54.8328 4.496 54.7928 4.632C54.8168 4.592 54.8408 4.548 54.8648 4.5C54.8888 4.444 54.9248 4.384 54.9728 4.32C55.1088 4.136 55.3248 3.948 55.6208 3.756C55.9248 3.556 56.2888 3.456 56.7128 3.456C57.0168 3.456 57.2968 3.52 57.5528 3.648C57.8168 3.768 58.0288 3.972 58.1888 4.26C58.3488 4.54 58.4288 4.924 58.4288 5.412V7.476ZM62.325 9.048C61.789 9.048 61.369 8.892 61.065 8.58C60.761 8.268 60.609 7.712 60.609 6.912V5.1C60.609 4.82 60.569 4.612 60.489 4.476C60.409 4.332 60.185 4.256 59.817 4.248C59.817 4.16 59.821 4.084 59.829 4.02C59.845 3.948 59.869 3.876 59.901 3.804C60.149 3.788 60.417 3.74 60.705 3.66C61.001 3.58 61.241 3.492 61.425 3.396C61.497 3.42 61.557 3.472 61.605 3.552C61.661 3.624 61.689 3.748 61.689 3.924V6.648C61.689 7.184 61.761 7.596 61.905 7.884C62.057 8.172 62.317 8.316 62.685 8.316C63.085 8.316 63.417 8.148 63.681 7.812C63.953 7.476 64.089 6.96 64.089 6.264V5.04C64.089 4.76 64.037 4.552 63.933 4.416C63.837 4.272 63.589 4.196 63.189 4.188C63.189 4.1 63.193 4.024 63.201 3.96C63.209 3.888 63.233 3.816 63.273 3.744C63.585 3.728 63.889 3.688 64.185 3.624C64.489 3.552 64.729 3.476 64.905 3.396C64.977 3.42 65.037 3.472 65.085 3.552C65.141 3.624 65.169 3.748 65.169 3.924V7.404L64.233 7.848C64.193 7.952 64.137 8.056 64.065 8.16C63.993 8.256 63.913 8.348 63.825 8.436C63.617 8.644 63.397 8.8 63.165 8.904C62.933 9 62.653 9.048 62.325 9.048ZM64.473 9.108C64.393 9.068 64.321 9.012 64.257 8.94C64.201 8.86 64.173 8.684 64.173 8.412C64.173 8.324 64.177 8.2 64.185 8.04C64.201 7.88 64.237 7.656 64.293 7.368H65.169C65.169 7.552 65.185 7.708 65.217 7.836C65.249 7.956 65.317 8.044 65.421 8.1C65.533 8.156 65.697 8.184 65.913 8.184C65.913 8.264 65.909 8.356 65.901 8.46C65.893 8.556 65.873 8.648 65.841 8.736C65.641 8.744 65.409 8.784 65.145 8.856C64.881 8.92 64.657 9.004 64.473 9.108ZM69.4224 9.108C68.8544 9.108 68.3824 8.98 68.0064 8.724C67.6304 8.468 67.3464 8.124 67.1544 7.692C66.9704 7.252 66.8784 6.772 66.8784 6.252C66.8784 5.74 66.9784 5.268 67.1784 4.836C67.3784 4.404 67.6624 4.056 68.0304 3.792C68.4064 3.528 68.8504 3.396 69.3624 3.396C69.8824 3.396 70.2984 3.508 70.6104 3.732C70.9304 3.956 71.1664 4.256 71.3184 4.632C71.4784 5.008 71.5744 5.424 71.6064 5.88C71.5744 6.04 71.5144 6.176 71.4264 6.288C71.2904 6.288 71.0864 6.288 70.8144 6.288C70.5424 6.288 70.2344 6.292 69.8904 6.3C69.5464 6.3 69.1944 6.308 68.8344 6.324C68.4744 6.332 68.1344 6.344 67.8144 6.36V5.748H70.3584C70.3584 5.22 70.2624 4.792 70.0704 4.464C69.8784 4.136 69.6064 3.972 69.2544 3.972C69.0624 3.972 68.8744 4.032 68.6904 4.152C68.5064 4.264 68.3544 4.468 68.2344 4.764C68.1144 5.052 68.0544 5.464 68.0544 6C68.0544 6.392 68.1024 6.776 68.1984 7.152C68.3024 7.52 68.4784 7.828 68.7264 8.076C68.9824 8.316 69.3424 8.436 69.8064 8.436C70.0704 8.436 70.3304 8.376 70.5864 8.256C70.8424 8.136 71.0704 7.964 71.2704 7.74C71.3344 7.772 71.3944 7.828 71.4504 7.908C71.5144 7.98 71.5504 8.048 71.5584 8.112C71.2864 8.472 70.9704 8.728 70.6104 8.88C70.2584 9.032 69.8624 9.108 69.4224 9.108Z" fill="black"/>
</svg>
